<svg xmlns="http://www.w3.org/2000/svg" viewBox="0 0 840 315" role="img" aria-labelledby="title desc">
<title id="title">看完整群點之後，怎麼回頭判斷每個點？</title><desc id="desc">PointNet 用共享逐點 feature 與 global max 表示形狀；分類讀全局，分割則把 local 與 global 接回每個點。</desc>
<defs><marker id="arrow" markerWidth="9" markerHeight="9" refX="8" refY="4.5" orient="auto"><path d="M0 0L9 4.5L0 9" fill="#826746"/></marker></defs>
<rect width="840" height="315" rx="16" fill="#fbf8f1"/>
<g font-family="Segoe UI,Microsoft JhengHei,sans-serif" fill="#242a32">
<text x="28" y="38" font-size="14" font-weight="700" fill="#826746">G3.3 · 計算關係</text>
<rect x="24" y="62" width="230" height="70" rx="10" fill="#fff" stroke="#d3c6b2"/>
<text x="139" y="102" text-anchor="middle" font-size="17" font-weight="600">逐點 features hᵢ</text>
<path d="M259 97h35" stroke="#826746" stroke-width="2" marker-end="url(#arrow)"/>
<rect x="304" y="62" width="230" height="70" rx="10" fill="#f0e6d5" stroke="#d3c6b2"/>
<text x="419" y="102" text-anchor="middle" font-size="15" font-weight="600">每 channel global max</text>
<path d="M539 97h35" stroke="#826746" stroke-width="2" marker-end="url(#arrow)"/>
<rect x="584" y="62" width="230" height="70" rx="10" fill="#fff" stroke="#d3c6b2"/>
<text x="699" y="102" text-anchor="middle" font-size="17" font-weight="600">全局摘要 z</text>
<rect x="24" y="162" width="230" height="70" rx="10" fill="#fff" stroke="#d3c6b2"/>
<text x="139" y="202" text-anchor="middle" font-size="17" font-weight="600">自己的 hᵢ 與 z</text>
<path d="M259 197h35" stroke="#826746" stroke-width="2" marker-end="url(#arrow)"/>
<rect x="304" y="162" width="230" height="70" rx="10" fill="#f0e6d5" stroke="#d3c6b2"/>
<text x="419" y="202" text-anchor="middle" font-size="15" font-weight="600">共享 segmentation head</text>
<path d="M539 197h35" stroke="#826746" stroke-width="2" marker-end="url(#arrow)"/>
<rect x="584" y="162" width="230" height="70" rx="10" fill="#fff" stroke="#d3c6b2"/>
<text x="699" y="202" text-anchor="middle" font-size="17" font-weight="600">逐點答案</text>
<text x="28" y="266" font-size="13" fill="#59616b">PointNet 用共享逐點 feature 與 global max 表示形狀；分類讀</text>
<text x="28" y="284" font-size="13" fill="#59616b">全局，分割則把 local 與 global 接回每個點。</text>
</g></svg>
